<mxfile host="app.diagrams.net" modified="2024-05-18T01:39:07.541Z" agent="Mozilla/5.0 (Windows NT 10.0; Win64; x64) AppleWebKit/537.36 (KHTML, like Gecko) Chrome/124.0.0.0 Safari/537.36 Edg/124.0.0.0" etag="DEbYmwbMDLkckOmQjfcE" version="24.4.0" type="github">
  <diagram name="Page-1" id="2YBvvXClWsGukQMizWep">
    <mxGraphModel dx="2858" dy="654" grid="1" gridSize="10" guides="1" tooltips="1" connect="1" arrows="1" fold="1" page="1" pageScale="1" pageWidth="850" pageHeight="1100" math="0" shadow="0">
      <root>
        <mxCell id="0" />
        <mxCell id="1" parent="0" />
        <mxCell id="Ujw3SYYmZKcwq7-ijMzD-8" value="&lt;div&gt;Territory: ContinentComposite&lt;/div&gt;" style="rounded=0;whiteSpace=wrap;html=1;" parent="1" vertex="1">
          <mxGeometry x="-1612.5" y="420" width="280" height="60" as="geometry" />
        </mxCell>
        <mxCell id="Ujw3SYYmZKcwq7-ijMzD-12" value="&lt;div&gt;PieceOfTerritory[i]: Countryleaf&lt;/div&gt;" style="rounded=0;whiteSpace=wrap;html=1;" parent="1" vertex="1">
          <mxGeometry x="-1595" y="620" width="245" height="60" as="geometry" />
        </mxCell>
        <mxCell id="Ujw3SYYmZKcwq7-ijMzD-15" value="Subject: Occupation" style="rounded=0;whiteSpace=wrap;html=1;" parent="1" vertex="1">
          <mxGeometry x="-990" y="500" width="120" height="60" as="geometry" />
        </mxCell>
        <mxCell id="Ujw3SYYmZKcwq7-ijMzD-17" value="" style="endArrow=none;html=1;rounded=0;exitX=0.5;exitY=0;exitDx=0;exitDy=0;entryX=0.5;entryY=1;entryDx=0;entryDy=0;" parent="1" source="Ujw3SYYmZKcwq7-ijMzD-12" target="Ujw3SYYmZKcwq7-ijMzD-8" edge="1">
          <mxGeometry width="50" height="50" relative="1" as="geometry">
            <mxPoint x="-1590" y="510" as="sourcePoint" />
            <mxPoint x="-1540" y="460" as="targetPoint" />
          </mxGeometry>
        </mxCell>
        <mxCell id="Ujw3SYYmZKcwq7-ijMzD-18" value="" style="endArrow=none;html=1;rounded=0;entryX=0;entryY=0.5;entryDx=0;entryDy=0;exitX=1;exitY=0.5;exitDx=0;exitDy=0;" parent="1" source="Ujw3SYYmZKcwq7-ijMzD-8" target="Ujw3SYYmZKcwq7-ijMzD-15" edge="1">
          <mxGeometry width="50" height="50" relative="1" as="geometry">
            <mxPoint x="-1590" y="510" as="sourcePoint" />
            <mxPoint x="-1540" y="460" as="targetPoint" />
          </mxGeometry>
        </mxCell>
        <mxCell id="Ujw3SYYmZKcwq7-ijMzD-20" value="" style="endArrow=classic;html=1;rounded=0;" parent="1" edge="1">
          <mxGeometry width="50" height="50" relative="1" as="geometry">
            <mxPoint x="-1232.5" y="630" as="sourcePoint" />
            <mxPoint x="-1290" y="630" as="targetPoint" />
          </mxGeometry>
        </mxCell>
        <mxCell id="Ujw3SYYmZKcwq7-ijMzD-21" value="2: setOccupant(subject: OccupantSubject)" style="edgeLabel;html=1;align=center;verticalAlign=middle;resizable=0;points=[];" parent="Ujw3SYYmZKcwq7-ijMzD-20" vertex="1" connectable="0">
          <mxGeometry x="-0.2303" y="3" relative="1" as="geometry">
            <mxPoint x="22" y="7" as="offset" />
          </mxGeometry>
        </mxCell>
        <mxCell id="Ujw3SYYmZKcwq7-ijMzD-23" value="" style="endArrow=none;html=1;rounded=0;entryX=0.5;entryY=1;entryDx=0;entryDy=0;exitX=0.75;exitY=1;exitDx=0;exitDy=0;startSize=1;endSize=1;" parent="1" source="Ujw3SYYmZKcwq7-ijMzD-12" target="Ujw3SYYmZKcwq7-ijMzD-12" edge="1">
          <mxGeometry width="50" height="50" relative="1" as="geometry">
            <mxPoint x="-1420" y="790" as="sourcePoint" />
            <mxPoint x="-1710" y="900" as="targetPoint" />
            <Array as="points">
              <mxPoint x="-1411" y="740" />
              <mxPoint x="-1472" y="740" />
            </Array>
          </mxGeometry>
        </mxCell>
        <mxCell id="Ujw3SYYmZKcwq7-ijMzD-24" value="3: notifyObservers(observer: OccupantSubject)" style="edgeLabel;html=1;align=center;verticalAlign=middle;resizable=0;points=[];" parent="1" vertex="1" connectable="0">
          <mxGeometry x="-1369.9966666666664" y="760" as="geometry" />
        </mxCell>
        <mxCell id="Ujw3SYYmZKcwq7-ijMzD-26" value="4: update(subject: OccupantSubject)" style="edgeLabel;html=1;align=center;verticalAlign=middle;resizable=0;points=[];" parent="1" vertex="1" connectable="0">
          <mxGeometry x="-1359.9966666666664" y="550" as="geometry">
            <mxPoint x="13" y="1" as="offset" />
          </mxGeometry>
        </mxCell>
        <mxCell id="Ujw3SYYmZKcwq7-ijMzD-27" value="5: getCountry(): OccupantSubject" style="edgeLabel;html=1;align=center;verticalAlign=middle;resizable=0;points=[];" parent="1" vertex="1" connectable="0">
          <mxGeometry x="-1594.9966666666664" y="550" as="geometry">
            <mxPoint x="13" y="-1" as="offset" />
          </mxGeometry>
        </mxCell>
        <mxCell id="Ujw3SYYmZKcwq7-ijMzD-28" value="6: occupyTerritory(attacker: Territory, defender: Territory, occupyArmy: int)" style="edgeLabel;html=1;align=center;verticalAlign=middle;resizable=0;points=[];" parent="1" vertex="1" connectable="0">
          <mxGeometry x="-1099.9966666666664" y="460" as="geometry">
            <mxPoint x="13" y="-1" as="offset" />
          </mxGeometry>
        </mxCell>
        <mxCell id="Ujw3SYYmZKcwq7-ijMzD-31" value="" style="endArrow=none;html=1;rounded=0;entryX=0;entryY=0.25;entryDx=0;entryDy=0;exitX=0.25;exitY=0;exitDx=0;exitDy=0;startSize=1;endSize=1;" parent="1" source="Ujw3SYYmZKcwq7-ijMzD-8" target="Ujw3SYYmZKcwq7-ijMzD-8" edge="1">
          <mxGeometry width="50" height="50" relative="1" as="geometry">
            <mxPoint x="-1569" y="330" as="sourcePoint" />
            <mxPoint x="-1630" y="330" as="targetPoint" />
            <Array as="points">
              <mxPoint x="-1542" y="390" />
              <mxPoint x="-1650" y="390" />
              <mxPoint x="-1650" y="435" />
            </Array>
          </mxGeometry>
        </mxCell>
        <mxCell id="Ujw3SYYmZKcwq7-ijMzD-34" value="" style="endArrow=none;html=1;rounded=0;startSize=1;endSize=1;exitX=1;exitY=0.25;exitDx=0;exitDy=0;" parent="1" source="Ujw3SYYmZKcwq7-ijMzD-8" edge="1">
          <mxGeometry width="50" height="50" relative="1" as="geometry">
            <mxPoint x="-1292" y="440" as="sourcePoint" />
            <mxPoint x="-1400" y="420" as="targetPoint" />
            <Array as="points">
              <mxPoint x="-1290" y="435" />
              <mxPoint x="-1290" y="390" />
              <mxPoint x="-1400" y="390" />
              <mxPoint x="-1400" y="412.5" />
            </Array>
          </mxGeometry>
        </mxCell>
        <mxCell id="Ujw3SYYmZKcwq7-ijMzD-35" value="8: notifyObservers(observer: OccupantSubject)" style="edgeLabel;html=1;align=center;verticalAlign=middle;resizable=0;points=[];" parent="1" vertex="1" connectable="0">
          <mxGeometry x="-1369.9966666666664" y="390" as="geometry">
            <mxPoint x="26" y="-12" as="offset" />
          </mxGeometry>
        </mxCell>
        <mxCell id="Ujw3SYYmZKcwq7-ijMzD-37" value="" style="endArrow=none;html=1;rounded=0;entryX=0;entryY=0.5;entryDx=0;entryDy=0;exitX=1;exitY=0.5;exitDx=0;exitDy=0;" parent="1" source="Ujw3SYYmZKcwq7-ijMzD-12" target="Ujw3SYYmZKcwq7-ijMzD-36" edge="1">
          <mxGeometry width="50" height="50" relative="1" as="geometry">
            <mxPoint x="-1330" y="660" as="sourcePoint" />
            <mxPoint x="-1280" y="610" as="targetPoint" />
          </mxGeometry>
        </mxCell>
        <mxCell id="Ujw3SYYmZKcwq7-ijMzD-41" value="" style="endArrow=classic;html=1;rounded=0;" parent="1" edge="1">
          <mxGeometry width="50" height="50" relative="1" as="geometry">
            <mxPoint x="-1670" y="390" as="sourcePoint" />
            <mxPoint x="-1670" y="430" as="targetPoint" />
          </mxGeometry>
        </mxCell>
        <mxCell id="Ujw3SYYmZKcwq7-ijMzD-42" value="" style="endArrow=classic;html=1;rounded=0;" parent="1" edge="1">
          <mxGeometry width="50" height="50" relative="1" as="geometry">
            <mxPoint x="-1480" y="710" as="sourcePoint" />
            <mxPoint x="-1480" y="740" as="targetPoint" />
          </mxGeometry>
        </mxCell>
        <mxCell id="Ujw3SYYmZKcwq7-ijMzD-43" value="" style="endArrow=classic;html=1;rounded=0;" parent="1" edge="1">
          <mxGeometry width="50" height="50" relative="1" as="geometry">
            <mxPoint x="-1460" y="580" as="sourcePoint" />
            <mxPoint x="-1460" y="520" as="targetPoint" />
          </mxGeometry>
        </mxCell>
        <mxCell id="Ujw3SYYmZKcwq7-ijMzD-44" value="" style="endArrow=classic;html=1;rounded=0;" parent="1" edge="1">
          <mxGeometry width="50" height="50" relative="1" as="geometry">
            <mxPoint x="-1490" y="520" as="sourcePoint" />
            <mxPoint x="-1490" y="580" as="targetPoint" />
          </mxGeometry>
        </mxCell>
        <mxCell id="Ujw3SYYmZKcwq7-ijMzD-45" value="" style="endArrow=classic;html=1;rounded=0;" parent="1" edge="1">
          <mxGeometry width="50" height="50" relative="1" as="geometry">
            <mxPoint x="-1280" y="430" as="sourcePoint" />
            <mxPoint x="-1280" y="390" as="targetPoint" />
          </mxGeometry>
        </mxCell>
        <mxCell id="Ujw3SYYmZKcwq7-ijMzD-46" value="" style="endArrow=classic;html=1;rounded=0;" parent="1" edge="1">
          <mxGeometry width="50" height="50" relative="1" as="geometry">
            <mxPoint x="-1120" y="440" as="sourcePoint" />
            <mxPoint x="-1060" y="440" as="targetPoint" />
          </mxGeometry>
        </mxCell>
        <mxCell id="Ujw3SYYmZKcwq7-ijMzD-48" value="Occupation Communication Diagram" style="swimlane;whiteSpace=wrap;html=1;" parent="1" vertex="1">
          <mxGeometry x="-1690" y="270" width="830" height="640" as="geometry" />
        </mxCell>
        <mxCell id="utFMvFUIHQREZjU3FneV-1" value="7: setOccupant(subject: OccupantSubject)" style="edgeLabel;html=1;align=center;verticalAlign=middle;resizable=0;points=[];" parent="Ujw3SYYmZKcwq7-ijMzD-48" vertex="1" connectable="0">
          <mxGeometry x="110.00142857142873" y="110" as="geometry" />
        </mxCell>
        <mxCell id="Ujw3SYYmZKcwq7-ijMzD-36" value="Defender: Territory" style="rounded=0;whiteSpace=wrap;html=1;" parent="Ujw3SYYmZKcwq7-ijMzD-48" vertex="1">
          <mxGeometry x="580" y="350" width="120" height="60" as="geometry" />
        </mxCell>
        <mxCell id="utFMvFUIHQREZjU3FneV-2" value="" style="endArrow=none;html=1;rounded=0;entryX=0.5;entryY=1;entryDx=0;entryDy=0;exitX=0.75;exitY=1;exitDx=0;exitDy=0;startSize=1;endSize=1;" parent="Ujw3SYYmZKcwq7-ijMzD-48" edge="1">
          <mxGeometry width="50" height="50" relative="1" as="geometry">
            <mxPoint x="681" y="410" as="sourcePoint" />
            <mxPoint x="620" y="410" as="targetPoint" />
            <Array as="points">
              <mxPoint x="681" y="470" />
              <mxPoint x="620" y="470" />
            </Array>
          </mxGeometry>
        </mxCell>
        <mxCell id="utFMvFUIHQREZjU3FneV-3" value="1: lastArmyStanding(): true" style="edgeLabel;html=1;align=center;verticalAlign=middle;resizable=0;points=[];" parent="Ujw3SYYmZKcwq7-ijMzD-48" vertex="1" connectable="0">
          <mxGeometry x="660.0033333333336" y="490" as="geometry" />
        </mxCell>
        <mxCell id="utFMvFUIHQREZjU3FneV-4" value="" style="endArrow=classic;html=1;rounded=0;" parent="Ujw3SYYmZKcwq7-ijMzD-48" edge="1">
          <mxGeometry width="50" height="50" relative="1" as="geometry">
            <mxPoint x="698.5699999999999" y="480" as="sourcePoint" />
            <mxPoint x="698.5699999999999" y="420" as="targetPoint" />
          </mxGeometry>
        </mxCell>
      </root>
    </mxGraphModel>
  </diagram>
</mxfile>
